<svg width="1024" height="1024" viewBox="0 0 1024 1024" fill="none" xmlns="http://www.w3.org/2000/svg">
  <defs>
    <linearGradient id="bg" x1="154" y1="124" x2="865" y2="900" gradientUnits="userSpaceOnUse">
      <stop stop-color="#F7F1E8"/>
      <stop offset="1" stop-color="#E8DED0"/>
    </linearGradient>
    <linearGradient id="glass" x1="202" y1="188" x2="796" y2="840" gradientUnits="userSpaceOnUse">
      <stop stop-color="#FFFFFF" stop-opacity="0.92"/>
      <stop offset="1" stop-color="#FFFFFF" stop-opacity="0.48"/>
    </linearGradient>
    <radialGradient id="blush" cx="0" cy="0" r="1" gradientUnits="userSpaceOnUse" gradientTransform="translate(734 350) rotate(132.155) scale(310.608 279.546)">
      <stop stop-color="#FFB6C8"/>
      <stop offset="1" stop-color="#FFB6C8" stop-opacity="0"/>
    </radialGradient>
    <radialGradient id="amber" cx="0" cy="0" r="1" gradientUnits="userSpaceOnUse" gradientTransform="translate(696 680) rotate(121.87) scale(284.472 260.418)">
      <stop stop-color="#FFD978"/>
      <stop offset="1" stop-color="#FFD978" stop-opacity="0"/>
    </radialGradient>
    <filter id="shadow" x="120" y="120" width="784" height="784" filterUnits="userSpaceOnUse" color-interpolation-filters="sRGB">
      <feFlood flood-opacity="0" result="BackgroundImageFix"/>
      <feColorMatrix in="SourceAlpha" type="matrix" values="0 0 0 0 0 0 0 0 0 0 0 0 0 0 0 0 0 0 127 0" result="hardAlpha"/>
      <feOffset dy="24"/>
      <feGaussianBlur stdDeviation="34"/>
      <feColorMatrix type="matrix" values="0 0 0 0 0.317647 0 0 0 0 0.258824 0 0 0 0 0.203922 0 0 0 0.18 0"/>
      <feBlend mode="normal" in2="BackgroundImageFix" result="effect1_dropShadow_1_2"/>
      <feBlend mode="normal" in="SourceGraphic" in2="effect1_dropShadow_1_2" result="shape"/>
    </filter>
  </defs>

  <rect x="78" y="78" width="868" height="868" rx="246" fill="url(#bg)"/>
  <rect x="108" y="108" width="808" height="808" rx="220" stroke="#FFFFFF" stroke-opacity="0.74" stroke-width="6"/>

  <g filter="url(#shadow)">
    <rect x="160" y="160" width="704" height="704" rx="188" fill="url(#glass)"/>
    <rect x="160" y="160" width="704" height="704" rx="188" stroke="#FFFFFF" stroke-opacity="0.72" stroke-width="5"/>
  </g>

  <circle cx="744" cy="344" r="150" fill="url(#blush)"/>
  <circle cx="666" cy="686" r="142" fill="url(#amber)"/>

  <path d="M352 322L514 486L674 322" stroke="#27222B" stroke-width="86" stroke-linecap="round" stroke-linejoin="round"/>
  <path d="M514 486V708" stroke="#27222B" stroke-width="86" stroke-linecap="round"/>

  <circle cx="730" cy="308" r="42" fill="#FF8CA7"/>
  <circle cx="730" cy="308" r="20" fill="#FFF7EF" fill-opacity="0.82"/>

  <path d="M286 704C350.188 704 402 755.812 402 820H286V704Z" fill="#27222B" fill-opacity="0.12"/>
  <path d="M702 744C760.542 744 808 791.458 808 850H702V744Z" fill="#27222B" fill-opacity="0.1"/>

  <path d="M742 236L751.728 258.272L774 268L751.728 277.728L742 300L732.272 277.728L710 268L732.272 258.272L742 236Z" fill="#FFE8A3"/>
  <path d="M742 236L751.728 258.272L774 268L751.728 277.728L742 300L732.272 277.728L710 268L732.272 258.272L742 236Z" stroke="#27222B" stroke-opacity="0.12" stroke-width="4"/>
</svg>
